<?xml version="1.0" encoding="iso-8859-1"?>
<!-- Generator: Adobe Illustrator 19.0.0, SVG Export Plug-In . SVG Version: 6.00 Build 0)  -->
<svg version="1.1" id="Capa_1" xmlns="http://www.w3.org/2000/svg" xmlns:xlink="http://www.w3.org/1999/xlink" x="0px" y="0px"
	 viewBox="0 0 512 512" style="enable-background:new 0 0 512 512;" xml:space="preserve">
<g>
	<g>
		<path d="M118.2,64.609c5.522,0,10-4.477,10-10s-4.478-10-10-10c-12.293,0-22.294,10.001-22.294,22.293
			c0,15.098,12.283,27.381,27.381,27.381c19.063,0,34.573-15.509,34.573-34.573c0-24.67-20.071-44.742-44.742-44.742
			C80.521,14.969,54,41.489,54,74.086c0,43.806,35.639,79.444,79.444,79.444c5.522,0,10-4.477,10-10s-4.478-10-10-10
			C100.667,133.531,74,106.865,74,74.086c0-21.57,17.549-39.118,39.118-39.118c13.643,0,24.742,11.099,24.742,24.742
			c0,8.036-6.537,14.573-14.573,14.573c-4.069,0-7.381-3.311-7.381-7.381C115.906,65.638,116.935,64.609,118.2,64.609z"/>
	</g>
</g>
<g>
	<g>
		<path d="M383.16,170.201c-1.86-1.86-4.44-2.93-7.07-2.93s-5.21,1.07-7.07,2.93s-2.93,4.44-2.93,7.07s1.07,5.21,2.93,7.07
			s4.44,2.93,7.07,2.93s5.21-1.07,7.07-2.93c1.859-1.86,2.93-4.44,2.93-7.07S385.02,172.06,383.16,170.201z"/>
	</g>
</g>
<g>
	<g>
		<path d="M430.243,70.46c-3.905-3.905-10.235-3.905-14.143,0l-32.413,32.413c-3.905,3.905-3.905,10.237,0,14.142
			c1.954,1.953,4.512,2.929,7.072,2.929c2.559,0,5.118-0.977,7.071-2.929l32.413-32.413
			C434.148,80.697,434.148,74.365,430.243,70.46z"/>
	</g>
</g>
<g>
	<g>
		<path d="M367.872,132.831c-3.904-3.905-10.234-3.905-14.143,0l-32.413,32.413c-3.905,3.905-3.905,10.237,0,14.142
			c1.954,1.953,4.512,2.929,7.072,2.929c2.559,0,5.118-0.977,7.071-2.929l32.413-32.413
			C371.777,143.068,371.777,136.736,367.872,132.831z"/>
	</g>
</g>
<g>
	<g>
		<path d="M502,357.031H388.046h-16.812H212.496l68.84-68.839l1.435,1.435c1.953,1.953,4.512,2.929,7.071,2.929
			c2.559,0,5.118-0.977,7.071-2.929l16.805-16.804c4.001,1.924,8.414,2.942,12.984,2.942c8.014,0,15.547-3.121,21.214-8.787
			L500.624,114.27c15.144-15.144,15.144-39.786,0-54.93l-32.933-32.933c-15.145-15.144-39.786-15.142-54.931,0L260.053,179.115
			c-5.666,5.667-8.786,13.2-8.786,21.213c0,4.571,1.019,8.983,2.942,12.984l-16.805,16.805c-3.905,3.905-3.905,10.237,0,14.143
			l1.435,1.435l-51.822,51.823c0.28-2.854,0.427-5.747,0.427-8.674c0-36.008-29.294-65.302-65.302-65.302
			c-27.083,0-49.116,22.033-49.116,49.116c0,20.77,16.897,37.667,37.667,37.667c16.305,0,29.569-13.265,29.569-29.569
			c0-13.146-10.695-23.841-23.842-23.841c-5.522,0-10,4.477-10,10s4.478,10,10,10c2.118,0,3.842,1.723,3.842,3.841
			c0,5.276-4.293,9.569-9.569,9.569c-9.741,0-17.667-7.925-17.667-17.667c0-16.055,13.062-29.116,29.116-29.116
			c24.979,0,45.302,20.322,45.302,45.302c0,37.599-30.588,68.187-68.187,68.187H10c-5.522,0-10,4.477-10,10v120
			c0,5.523,4.478,10,10,10h492c5.522,0,10-4.477,10-10v-120C512,361.508,507.522,357.031,502,357.031z M274.195,193.258
			L426.903,40.549c3.673-3.673,8.497-5.51,13.323-5.51c4.824,0,9.649,1.837,13.322,5.51l22.56,22.559l-33.68,33.68
			c-3.905,3.905-3.905,10.237,0,14.142c1.953,1.953,4.512,2.929,7.071,2.929s5.118-0.977,7.071-2.929l33.127-33.128
			c3.884,7.146,2.819,16.289-3.217,22.325L333.773,252.836c-3.898,3.898-10.244,3.898-14.143,0l-0.029-0.029
			c-0.002-0.002-0.003-0.004-0.005-0.005l-2.448-2.448l45.792-45.793c3.905-3.905,3.905-10.237,0-14.142
			c-3.906-3.905-10.236-3.905-14.143,0l-45.791,45.792l-28.776-28.776c-0.001-0.002-0.003-0.003-0.005-0.005l-0.03-0.03
			C270.296,203.5,270.296,197.156,274.195,193.258z M267.16,228.649l31.224,31.224l-8.542,8.54l-1.425-1.425
			c-0.003-0.003-0.006-0.007-0.009-0.01l-28.354-28.354l-1.435-1.434L267.16,228.649z M252.981,259.837l14.212,14.212
			l-82.982,82.982h-28.423L252.981,259.837z M20,377.031h90.013l-24.425,24.426c-2.306,2.305-5.37,3.574-8.63,3.574H20V377.031z
			 M492,407.031h-68.828c-5.522,0-10,4.477-10,10s4.478,10,10,10H492v50H20v-52h56.958c8.602,0,16.688-3.35,22.771-9.432
			l38.568-38.568h50.056h136.492c-5.032,5.332-9.198,11.576-12.208,18.565l-9.457,21.959c-6.927,16.083-22.717,26.476-40.228,26.476
			h-16.811c-5.522,0-10,4.477-10,10s4.478,10,10,10h16.811c25.507,0,48.508-15.138,58.597-38.565l9.457-21.959
			c6.926-16.083,22.716-26.476,40.228-26.476h16.812H492V407.031z"/>
	</g>
</g>
<g>
	<g>
		<path d="M214.201,446.961c-1.861-1.86-4.431-2.93-7.061-2.93c-2.64,0-5.21,1.07-7.08,2.93c-1.859,1.86-2.92,4.44-2.92,7.07
			s1.061,5.21,2.92,7.07c1.87,1.86,4.44,2.93,7.08,2.93c2.63,0,5.2-1.07,7.061-2.93c1.869-1.86,2.939-4.44,2.939-7.07
			S216.07,448.82,214.201,446.961z"/>
	</g>
</g>
<g>
	<g>
		<path d="M142,444.031H75.168c-5.522,0-10,4.477-10,10s4.478,10,10,10H142c5.522,0,10-4.477,10-10S147.522,444.031,142,444.031z"/>
	</g>
</g>
<g>
	<g>
		<path d="M231.653,407.031h-75.342c-5.522,0-10,4.477-10,10s4.478,10,10,10h75.342c5.523,0,10-4.477,10-10
			C241.653,411.508,237.175,407.031,231.653,407.031z"/>
	</g>
</g>
<g>
	<g>
		<path d="M423.172,444.031h-65.188c-5.522,0-10,4.477-10,10s4.478,10,10,10h65.188c5.522,0,10-4.477,10-10
			S428.694,444.031,423.172,444.031z"/>
	</g>
</g>
<g>
</g>
<g>
</g>
<g>
</g>
<g>
</g>
<g>
</g>
<g>
</g>
<g>
</g>
<g>
</g>
<g>
</g>
<g>
</g>
<g>
</g>
<g>
</g>
<g>
</g>
<g>
</g>
<g>
</g>
</svg>
