<svg id="Layer_1" height="512" viewBox="0 0 512 512" width="512" xmlns="http://www.w3.org/2000/svg" data-name="Layer 1"><path d="m256 257.15a84.043 84.043 0 1 0 84.043 84.043 84.138 84.138 0 0 0 -84.043-84.043zm39.2 61.628-48.388 84.431a5 5 0 0 1 -9.332-2.718l2.037-43.884-10.312-.011a5 5 0 0 1 -4.929-5.806l10.5-64.278a5 5 0 0 1 4.935-4.194h38.355a5 5 0 0 1 4.744 6.58l-7.823 23.5 15.525-1.092a5 5 0 0 1 4.688 7.474z"/><path d="m263.935 320.973a5 5 0 0 1 -.794-4.645l7.993-24.01h-27.172l-8.862 54.282 9.667.01a5 5 0 0 1 4.988 5.232l-1.319 28.433 33.435-58.341-13.631.959a5.007 5.007 0 0 1 -4.305-1.92z"/><path d="m174.2 117.412a33.63 33.63 0 0 1 33.6-33.592h85.413a33.631 33.631 0 0 1 33.587 33.592v13.02h20.791v-13.02a54.445 54.445 0 0 0 -54.384-54.383h-85.407a54.445 54.445 0 0 0 -54.384 54.383v13.02h20.784z"/><path d="m401.866 253.943v-33.759h-42.96v33.759l21.48 15.879z"/><path d="m142.098 254.018v-33.834h-42.96v33.834l21.479 16.69z"/><path d="m471.463 179.42a39.031 39.031 0 0 0 -38.987-38.988h-352.952a39.031 39.031 0 0 0 -38.987 38.988v4.656h430.926z"/><path d="m411.866 256.464a5 5 0 0 1 -2.027 4.021l-26.481 19.576a5 5 0 0 1 -5.945 0l-26.479-19.576a5 5 0 0 1 -2.028-4.021v-20.535h-196.806v20.535a5 5 0 0 1 -1.933 3.949l-26.48 20.575a5 5 0 0 1 -6.136 0l-26.48-20.575a5 5 0 0 1 -1.931-3.949v-20.535h-48.6v174.055a39.031 39.031 0 0 0 38.987 38.987h352.949a39.031 39.031 0 0 0 38.987-38.987v-174.055h-59.6zm-342.866 158.271a5 5 0 0 1 -10 0v-96.068a5 5 0 0 1 10 0zm0-113.687a5 5 0 0 1 -10 0v-7.048a5 5 0 0 1 10 0zm187 134.188a94.043 94.043 0 1 1 94.043-94.043 94.149 94.149 0 0 1 -94.043 94.043z"/><path d="m27.607 225.929h61.531v-10.745a5 5 0 0 1 5-5h52.962a5 5 0 0 1 5 5v10.745h196.806v-10.745a5 5 0 0 1 5-5h52.96a5 5 0 0 1 5 5v10.745h72.527v-31.853h-456.786z"/></svg>