<svg id="Capa_1" enable-background="new 0 0 512 512" height="512" viewBox="0 0 512 512" width="512" xmlns="http://www.w3.org/2000/svg"><g><circle cx="256" cy="106" r="15"/><path d="m211 226v36.707c14.145 5.043 29.145 8.293 45 8.293s30.855-3.25 45-8.293v-36.707c0-24.814-20.186-45-45-45s-45 20.186-45 45z"/><path d="m181 248.147v-22.147c0-41.353 33.647-75 75-75-24.814 0-45-20.186-45-45s20.186-45 45-45 45 20.186 45 45-20.186 45-45 45c41.353 0 75 33.647 75 75v22.147c36.141-24.249 60-65.446 60-112.147 0-74.443-60.557-136-135-136s-135 61.557-135 136c0 46.701 23.859 87.898 60 112.147z"/><path d="m451 226v108.633l-94.395 94.395-21.211-21.211 85.606-85.606-42.422-42.422-107.578 107.578v124.633h150v-43.524l91-81.665v-205.811h-15c-24.853 0-46 20.147-46 45z"/><path d="m91 512h150v-124.633l-107.578-107.578-42.422 42.422 85.605 85.605-21.211 21.211-94.394-94.394v-108.633c0-24.853-20.147-45-45-45h-16v205.811l91 81.665z"/></g></svg>