<svg id="Capa_1" enable-background="new 0 0 512 512" height="512" viewBox="0 0 512 512" width="512" xmlns="http://www.w3.org/2000/svg"><g><path d="m492.23 19.771c-12.749-12.75-29.699-19.771-47.73-19.771-18.029 0-34.98 7.021-47.729 19.771-1.616 1.616-3.165 3.33-4.604 5.092l-85.334 104.538h-84.083c-20.032 0-38.866 7.801-53.031 21.966l-169.719 169.715 190.919 190.918 169.713-169.715c14.166-14.165 21.967-32.999 21.967-53.032v-84.085l104.541-85.336c1.766-1.442 3.479-2.99 5.09-4.602 12.749-12.749 19.77-29.7 19.77-47.73s-7.021-34.981-19.77-47.729zm-301.303 280.088-84.86 84.862-21.214-21.214 84.861-84.862zm21.213 21.213 21.214 21.214-84.861 84.862-21.213-21.213zm-63.637-106.063 21.214-21.213 148.49 148.49-21.214 21.214zm-21.213 21.212 21.212 21.212-84.862 84.862-21.213-21.213zm42.416 212.139 84.861-84.862 21.213 21.213-84.861 84.862zm301.311-354.343c-.902.902-1.862 1.77-2.85 2.576l-115.568 94.338v98.322c0 12.02-4.681 23.32-13.18 31.819 0 0-148.489-148.489-148.489-148.489 8.501-8.501 19.801-13.182 31.82-13.182h98.319l94.34-115.569c.804-.985 1.67-1.944 2.574-2.848 7.084-7.083 16.501-10.984 26.517-10.984s19.434 3.901 26.517 10.984c7.083 7.082 10.983 16.499 10.983 26.516s-3.9 19.434-10.983 26.517z"/></g></svg>